<svg width="50" height="33" viewBox="0 0 50 33" fill="none" xmlns="http://www.w3.org/2000/svg">
<path fill-rule="evenodd" clip-rule="evenodd" d="M39.8548 31.2464C38.2463 31.2464 36.9596 29.7319 36.9596 27.7392C36.9596 25.8261 38.2463 24.3116 39.8548 24.3116C41.3827 24.3116 42.6695 25.8261 42.6695 27.7392C42.6695 29.7319 41.3827 31.2464 39.8548 31.2464Z" fill="#4C4F91"/>
<path fill-rule="evenodd" clip-rule="evenodd" d="M39.8548 33C37.4422 33 35.5121 30.6087 35.5121 27.7391C35.5121 24.9493 37.4422 22.558 39.8548 22.558C42.187 22.558 44.1171 24.9493 44.1171 27.7391C44.0367 30.6884 42.187 33 39.8548 33Z" fill="#4AD891"/>
<path fill-rule="evenodd" clip-rule="evenodd" d="M49.2639 3.02902H13.7983C11.8682 3.02902 9.85767 6.13768 7.84715 9.16666C6.15831 11.7971 4.06738 13.1522 2.37854 13.471C0.287596 14.029 0.528849 21.5217 1.01137 26.2246L3.424 27.1014C3.66526 23.6739 6.07788 20.9638 8.97303 20.9638C11.7878 20.9638 14.2004 23.6739 14.4417 27.1014H34.1448C34.386 23.6739 36.7182 20.9638 39.6938 20.9638C42.5085 20.9638 44.9212 23.6739 45.1624 27.1014H49.2639V11.6377V3.02902Z" fill="#4C4F91"/>
<path fill-rule="evenodd" clip-rule="evenodd" d="M8.89261 30.9276C7.36461 30.9276 6.07788 29.3334 6.07788 27.4203C6.07788 25.4276 7.36461 23.9131 8.89261 23.9131C10.501 23.9131 11.7877 25.4276 11.7877 27.4203C11.7877 29.3334 10.501 30.9276 8.89261 30.9276Z" fill="#4C4F91"/>
<path fill-rule="evenodd" clip-rule="evenodd" d="M8.89269 32.6811C6.56049 32.6811 4.63037 30.3695 4.63037 27.5C4.63037 24.6304 6.56049 22.2391 8.89269 22.2391C11.3053 22.2391 13.2354 24.6304 13.2354 27.5C13.155 30.3695 11.2249 32.6811 8.89269 32.6811Z" fill="#4AD891"/>
<path fill-rule="evenodd" clip-rule="evenodd" d="M15.7285 2.94928C15.7285 2.71015 15.7285 1.67395 15.7285 1.43482C15.7285 0.63772 15.2459 0 14.6026 0C13.9592 0 13.4767 0.71743 13.4767 1.43482C13.4767 1.67395 13.4767 2.71015 13.4767 2.94928H15.7285Z" fill="white"/>
<path fill-rule="evenodd" clip-rule="evenodd" d="M18.9452 13.471H8.41003L13.2353 4.30438H18.9452V13.471Z" fill="white"/>
<path d="M32.1343 5.34058H22.6447V13.8696H32.1343V5.34058Z" fill="white"/>
<path d="M44.8408 5.34058H34.4666V13.8696H44.8408V5.34058Z" fill="white"/>
<path fill-rule="evenodd" clip-rule="evenodd" d="M26.5852 15.7029C28.6762 15.7029 30.2846 17.6957 30.2846 20.1667C30.2846 22.6377 28.6762 24.6305 26.5852 24.6305C24.5747 24.6305 22.8859 22.558 22.8859 20.1667C22.9663 17.6957 24.6551 15.7029 26.5852 15.7029Z" fill="white"/>
<path d="M18.4629 14.7464H15.4069V15.7029H18.4629V14.7464Z" fill="white"/>
<path fill-rule="evenodd" clip-rule="evenodd" d="M25.9418 17.5362H27.3894V19.2899H28.837V21.1232H27.3894V22.8768H25.9418V21.1232H24.4943V19.2899H25.9418V17.5362Z" fill="#4AD891"/>
</svg>
