<svg width="24" height="30" viewBox="0 0 24 30" fill="none" xmlns="http://www.w3.org/2000/svg">
<path d="M22.9985 7.86924C22.9985 8.12049 22.9985 8.37175 22.9779 8.623C22.9779 8.66487 22.9779 8.68581 22.9779 8.72769C22.9779 8.81144 22.9779 8.91613 22.9573 8.99988C22.9573 9.04175 22.9573 9.08363 22.9573 9.1255C22.9573 9.20926 22.9367 9.31394 22.9367 9.3977C22.9367 9.43957 22.9367 9.46051 22.9367 9.50238C22.9162 9.62801 22.9162 9.7327 22.8956 9.85833C22.8956 9.92114 22.875 9.96301 22.875 10.0258C22.875 10.0886 22.8545 10.1515 22.8545 10.2352C22.8545 10.298 22.8339 10.3818 22.8339 10.4446C22.8339 10.4865 22.8133 10.5493 22.8133 10.5911C22.8133 10.633 22.7927 10.6958 22.7927 10.7377C22.0316 18.8197 19.3984 29.4979 16.5801 29.4979H16.5596C16.539 29.4979 16.5184 29.4979 16.4979 29.4979C16.4773 29.4979 16.4773 29.4979 16.4567 29.4979C16.4361 29.4979 16.4156 29.4979 16.395 29.4979H16.3744C16.3744 29.4979 16.3744 29.4979 16.3539 29.4979C16.3333 29.4979 16.3127 29.477 16.2716 29.477H16.251C16.2099 29.4561 16.1893 29.4561 16.1481 29.4351C16.1481 29.4351 16.1481 29.4351 16.1276 29.4351C16.107 29.4142 16.0659 29.4142 16.0453 29.3932C16.0247 29.3932 16.0247 29.3723 16.0041 29.3723C15.9836 29.3514 15.963 29.3514 15.9424 29.3304C15.9219 29.3304 15.9219 29.3095 15.9013 29.3095C15.8807 29.2886 15.8601 29.2676 15.8396 29.2676L15.819 29.2467C15.7984 29.2257 15.7779 29.1839 15.7573 29.1629C15.7573 29.1629 15.7573 29.1629 15.7367 29.142C15.7161 29.1001 15.675 29.0792 15.6544 29.0373C15.6544 29.0164 15.6339 29.0164 15.6339 28.9954C15.6133 28.9745 15.5927 28.9326 15.5721 28.9117C15.5721 28.9117 15.5721 28.8907 15.5516 28.8907C15.5516 28.8907 15.5516 28.8698 15.531 28.8698C15.4693 28.7651 15.4281 28.6604 15.387 28.5557C15.1607 27.9695 15.0784 27.3413 15.1196 26.7132C15.1401 26.4201 15.1607 26.106 15.1607 25.792C15.1607 22.3582 13.7619 19.5525 11.9927 19.385C11.9721 19.385 11.9516 19.385 11.931 19.385C11.9104 19.385 11.8898 19.385 11.8693 19.385C10.1001 19.5525 8.70126 22.3582 8.70126 25.792C8.70126 26.106 8.72184 26.4201 8.74241 26.7132C8.78355 27.3413 8.70126 27.9695 8.47498 28.5557C8.43384 28.6814 8.37212 28.786 8.33098 28.8698C8.33098 28.8698 8.33098 28.8907 8.31041 28.8907C8.31041 28.8907 8.31041 28.9117 8.28983 28.9117C8.26926 28.9326 8.24869 28.9745 8.22812 28.9954C8.22812 29.0164 8.20755 29.0164 8.20755 29.0373C8.18698 29.0792 8.14583 29.1211 8.12526 29.142C8.12526 29.142 8.12526 29.1629 8.10469 29.1629C8.08412 29.1839 8.06355 29.2257 8.04298 29.2467C8.04298 29.2676 8.02241 29.2676 8.02241 29.2676C8.00183 29.2886 7.98126 29.3095 7.96069 29.3095C7.94012 29.3095 7.94012 29.3304 7.91955 29.3304C7.89898 29.3514 7.87841 29.3514 7.85783 29.3723C7.83726 29.3723 7.83726 29.3932 7.81669 29.3932C7.79612 29.4142 7.77555 29.4142 7.7344 29.4351C7.7344 29.4351 7.73441 29.4351 7.71383 29.4351C7.67269 29.4561 7.65212 29.4561 7.61098 29.477H7.5904C7.56983 29.477 7.54926 29.4979 7.50812 29.4979C7.50812 29.4979 7.50812 29.4979 7.48755 29.4979H7.46697C7.4464 29.4979 7.42583 29.4979 7.40526 29.4979C7.38469 29.4979 7.38469 29.4979 7.36412 29.4979C7.34355 29.4979 7.32297 29.4979 7.3024 29.4979H7.28183C4.46354 29.4979 1.83039 18.8197 1.06924 10.7377C1.06924 10.6958 1.04867 10.633 1.04867 10.5911C1.04867 10.5493 1.0281 10.4865 1.0281 10.4446C1.0281 10.3818 1.00753 10.298 1.00753 10.2352C1.00753 10.1724 0.986954 10.0886 0.986954 10.0258C0.986954 9.96301 0.966383 9.92114 0.966383 9.85833C0.945811 9.7327 0.945811 9.62801 0.92524 9.50238C0.92524 9.46051 0.92524 9.43957 0.92524 9.3977C0.92524 9.31394 0.904669 9.20926 0.904669 9.1255C0.904669 9.08363 0.904669 9.04175 0.904669 8.99988C0.904669 8.91613 0.884097 8.81144 0.884097 8.72769C0.884097 8.68581 0.884097 8.66487 0.884097 8.623C0.863525 8.37175 0.863525 8.12049 0.863525 7.86924C0.863525 7.8483 0.863525 7.82736 0.863525 7.82736C0.863525 7.72268 0.863525 7.63892 0.863525 7.53424C0.863525 7.5133 0.863525 7.5133 0.863525 7.49236C0.863525 7.47142 0.863525 7.47142 0.863525 7.45049C0.863525 7.40861 0.863525 7.38767 0.863525 7.3458C0.986954 3.91201 3.74353 1.14822 7.11726 1.14822C9.09212 1.14822 10.8613 2.09042 11.9721 3.577C13.1036 2.09042 14.8521 1.14822 16.827 1.14822C20.2007 1.14822 22.9573 3.93294 22.9779 7.36673C22.9779 7.40861 22.9779 7.42955 22.9779 7.47142C22.9779 7.49236 22.9779 7.49236 22.9779 7.5133C22.9779 7.53424 22.9779 7.53424 22.9779 7.55517C22.9779 7.65986 22.9779 7.74361 22.9779 7.8483C22.9985 7.82736 22.9985 7.8483 22.9985 7.86924Z" fill="#4C4F91"/>
<path d="M16.4774 29.9581C16.4568 29.9581 16.4362 29.9581 16.4157 29.9581C16.3951 29.9581 16.354 29.9581 16.3334 29.9581H16.3128H16.2717C16.2305 29.9581 16.21 29.9372 16.1688 29.9372L16.1277 29.9163C16.0865 29.8953 16.0248 29.8744 15.9837 29.8534L15.9425 29.8325C15.9014 29.8116 15.8602 29.7906 15.8397 29.7697C15.8191 29.7697 15.8191 29.7488 15.7985 29.7278C15.778 29.7069 15.7368 29.6859 15.7162 29.665C15.6957 29.6441 15.6957 29.6441 15.6751 29.6231C15.6545 29.6022 15.634 29.5813 15.5928 29.5603C15.5722 29.5394 15.5722 29.5394 15.5517 29.5184C15.5311 29.4975 15.49 29.4556 15.4694 29.4138L15.4488 29.3928C15.4077 29.3509 15.3871 29.3091 15.346 29.2463C15.346 29.2253 15.3254 29.2253 15.3254 29.2044C15.3048 29.1834 15.2842 29.1416 15.2637 29.0997L15.2431 29.0578C15.2431 29.0369 15.2225 29.0369 15.2225 29.0159C15.1608 28.9112 15.0991 28.7856 15.058 28.66C14.8111 28.0319 14.7082 27.32 14.7494 26.6081C14.77 26.315 14.7905 26.0218 14.7905 25.7287C14.7905 22.588 13.5357 19.929 12.0134 19.7824H11.9928H11.9722C10.4294 19.929 9.19508 22.609 9.19508 25.7287C9.19508 26.0218 9.21565 26.315 9.23623 26.629C9.29794 27.3409 9.19508 28.0528 8.92765 28.6809C8.88651 28.8066 8.8248 28.9322 8.76308 29.0369C8.76308 29.0578 8.74251 29.0578 8.74251 29.0788L8.72194 29.1206C8.70137 29.1625 8.6808 29.1834 8.66022 29.2253C8.66022 29.2463 8.63965 29.2463 8.63965 29.2672C8.59851 29.3091 8.57794 29.3719 8.5368 29.4138L8.51622 29.4347C8.49565 29.4766 8.45451 29.4975 8.43394 29.5394C8.43394 29.5394 8.41337 29.5603 8.39279 29.5813L8.37222 29.6022C8.35165 29.6231 8.33108 29.6441 8.31051 29.665C8.28994 29.6859 8.26937 29.6859 8.26937 29.7069C8.24879 29.7278 8.20765 29.7488 8.18708 29.7697C8.16651 29.7906 8.14594 29.7906 8.12537 29.8116C8.08422 29.8325 8.06365 29.8534 8.02251 29.8744L7.98136 29.8953C7.94022 29.9163 7.89908 29.9372 7.83736 29.9581L7.79622 29.9791C7.75508 29.9791 7.73451 30 7.69336 30H7.65222H7.63165C7.59051 30 7.56993 30 7.54936 30C7.50822 30 7.46708 30 7.42593 30H7.40536C5.88307 30 4.4225 27.7597 3.10592 23.3209C2.0362 19.7615 1.15163 15.0923 0.760769 10.821L0.699054 10.3185C0.699054 10.2557 0.678483 10.172 0.678483 10.1091V10.0463C0.678483 10.0045 0.678483 9.96259 0.657911 9.92071C0.63734 9.79508 0.63734 9.66946 0.616768 9.56477V9.46008C0.616768 9.37633 0.596197 9.27164 0.596197 9.18789C0.596197 9.14601 0.596197 9.10414 0.596197 9.0832C0.596197 8.99945 0.596197 8.9157 0.575625 8.83195V8.81101C0.575625 8.76913 0.575625 8.72726 0.575625 8.70632C0.555054 8.45507 0.555054 8.18288 0.555054 7.93162V7.91069V7.88975C0.555054 7.78506 0.555054 7.68037 0.555054 7.57568V7.55475C0.555054 7.55475 0.555054 7.55474 0.555054 7.53381V7.51287V7.42912C0.575625 3.76501 3.53792 0.770915 7.13793 0.770915C9.00994 0.770915 10.7585 1.56655 11.9928 2.94844C13.2271 1.4828 14.9757 0.687164 16.8477 0.687164C20.4477 0.687164 23.41 3.68126 23.4306 7.34537V7.45006V7.47099C23.4306 7.47099 23.4306 7.47099 23.4306 7.49193V7.51287C23.4306 7.61756 23.4306 7.72225 23.4306 7.82694V7.84787C23.4306 7.86881 23.4306 7.86881 23.4306 7.88975C23.4306 8.141 23.4306 8.41319 23.41 8.66445C23.41 8.68538 23.41 8.72726 23.41 8.76913C23.41 8.87382 23.41 8.95757 23.3894 9.04132C23.3894 9.0832 23.3894 9.12508 23.3894 9.14601C23.3894 9.22976 23.3688 9.33445 23.3688 9.4182V9.52289C23.3483 9.64852 23.3483 9.77415 23.3277 9.89977C23.3277 9.94165 23.3277 9.96259 23.3071 10.0045V10.0673C23.3071 10.1301 23.2866 10.2138 23.2866 10.2767L23.2248 10.7792C22.8134 15.0505 21.9494 19.7196 20.8797 23.279C19.5425 27.6969 18.1025 29.9581 16.5802 29.9581H16.5597C16.5185 29.9581 16.498 29.9581 16.4774 29.9581ZM15.922 29.8325C15.9425 29.8325 15.9425 29.8325 15.922 29.8325V29.8325ZM16.4362 29.0578C16.4568 29.0578 16.4568 29.0578 16.4568 29.0578H16.4774C16.4774 29.0578 16.4774 29.0578 16.498 29.0578H16.5597C18.6374 29.0578 21.4351 20.1383 22.3197 10.6954L22.3403 10.5279L22.3814 10.172C22.3814 10.1091 22.402 10.0463 22.402 9.96259V9.89977C22.402 9.8579 22.402 9.83696 22.4226 9.79508C22.4431 9.66946 22.4431 9.56477 22.4637 9.43914V9.33445C22.4637 9.2507 22.4843 9.14601 22.4843 9.06226C22.4843 9.02039 22.4843 8.97851 22.4843 8.93664C22.4843 8.85289 22.4843 8.7482 22.5048 8.66445C22.5048 8.64351 22.5048 8.60163 22.5048 8.58069C22.5254 8.32944 22.5254 8.07819 22.5254 7.84787V7.82694C22.5254 7.806 22.5254 7.806 22.5254 7.78506C22.5254 7.70131 22.5254 7.59662 22.5254 7.51287V7.49193V7.47099V7.45006V7.42912V7.30349C22.5048 4.12095 19.9334 1.54561 16.8271 1.54561C15.058 1.54561 13.4122 2.36218 12.3219 3.80689L11.9722 4.26752L11.6225 3.84876C10.5322 2.425 8.88651 1.58749 7.11736 1.58749C3.99049 1.58749 1.43963 4.16283 1.41906 7.34537V7.47099V7.53381V7.55475C1.41906 7.6385 1.41906 7.74318 1.41906 7.82694V7.84787V7.86881C1.41906 8.12006 1.41906 8.35038 1.43963 8.60163C1.43963 8.64351 1.43963 8.66445 1.43963 8.68538V8.70632C1.43963 8.79007 1.43963 8.87382 1.4602 8.95757C1.4602 8.99945 1.4602 9.04132 1.4602 9.0832C1.4602 9.16695 1.48077 9.2507 1.48077 9.35539V9.46008C1.50134 9.56477 1.50134 9.6904 1.52191 9.81602C1.52191 9.8579 1.52191 9.87883 1.54249 9.92071V9.98352C1.54249 10.0463 1.56306 10.1091 1.56306 10.172L1.62477 10.6954C2.50935 20.1383 5.32764 29.0578 7.38479 29.0578H7.44651H7.46708H7.48765C7.48765 29.0578 7.48765 29.0578 7.50822 29.0578H7.52879C7.54936 29.0578 7.54936 29.0578 7.56993 29.0578H7.59051H7.61108C7.61108 29.0578 7.63165 29.0578 7.63165 29.0369C7.65222 29.0369 7.65222 29.0159 7.67279 29.0159H7.69336L7.71394 28.995L7.73451 28.9741C7.75508 28.9741 7.75508 28.9531 7.77565 28.9322C7.79622 28.9112 7.81679 28.8903 7.83736 28.8694L7.85793 28.8484C7.87851 28.8275 7.89908 28.8066 7.91965 28.7647L7.94022 28.7437C7.96079 28.7228 7.96079 28.7019 7.98136 28.6809V28.66C7.98136 28.66 7.98136 28.6391 8.00194 28.6391C8.04308 28.5553 8.08422 28.4716 8.12537 28.3669C8.33108 27.8644 8.41337 27.299 8.37222 26.7337C8.35165 26.4197 8.33108 26.0847 8.33108 25.7706C8.33108 22.0646 9.87394 19.1124 11.8899 18.9239C11.9105 18.9239 11.9517 18.9239 11.9722 18.9239H12.0134H12.0545C12.0751 18.9239 12.0957 18.9239 12.1162 18.9239C14.1528 19.1124 15.6957 22.0646 15.6957 25.7706C15.6957 26.0847 15.6751 26.4197 15.6545 26.7337C15.6134 27.299 15.6957 27.8644 15.9014 28.3669C15.9425 28.4716 15.9837 28.5553 16.0248 28.6391C16.0248 28.6391 16.0248 28.66 16.0454 28.66V28.6809C16.066 28.7019 16.066 28.7228 16.0865 28.7437L16.1071 28.7647C16.1277 28.7856 16.1482 28.8275 16.1688 28.8484C16.1688 28.8484 16.1688 28.8484 16.1688 28.8694C16.1894 28.8903 16.21 28.9112 16.21 28.9322L16.2305 28.9531C16.2511 28.9741 16.2511 28.9741 16.2717 28.995C16.2717 28.995 16.2922 28.995 16.2922 29.0159L16.3128 29.0369C16.3334 29.0369 16.3334 29.0578 16.354 29.0578C16.354 29.0578 16.3745 29.0578 16.3745 29.0788H16.3951H16.4157C16.4157 29.0578 16.4157 29.0578 16.4362 29.0578Z" fill="white"/>
<path d="M22.9781 7.3877C22.9781 7.42958 22.9781 7.47145 22.9781 7.51333C22.8752 14.5275 12.898 18.9872 12.034 19.3432C11.9929 19.3641 11.9723 19.3641 11.9723 19.3641C11.9723 19.3641 11.9517 19.3641 11.9106 19.3432C10.9849 19.0082 1.06941 15.1137 0.966553 7.51333C0.966553 7.47145 0.966553 7.42958 0.966553 7.3877C0.966553 7.36677 0.966553 7.36677 0.966553 7.34583C0.987124 3.91204 3.7437 1.14825 7.11743 1.14825C9.09229 1.14825 10.8614 2.09045 11.9723 3.57703C13.1037 2.09045 14.8523 1.14825 16.8272 1.14825C20.2009 1.14825 22.9575 3.93297 22.9781 7.36677V7.3877Z" fill="#4C4F91"/>
<path d="M11.9927 19.8456L11.8281 19.7828C11.8281 19.7828 11.8075 19.7828 11.7458 19.7619C10.6144 19.3431 0.637223 15.3859 0.513794 7.5133C0.513794 7.47142 0.513794 7.42955 0.513794 7.38767C0.513794 7.36674 0.513794 7.3458 0.513794 7.32486C0.534365 3.66075 3.49666 0.666656 7.09667 0.666656C8.96868 0.666656 10.7173 1.46229 11.9515 2.84418C13.227 1.48323 14.9756 0.687594 16.8476 0.687594C20.4476 0.687594 23.4099 3.66075 23.4304 7.3458C23.4304 7.36674 23.4304 7.38767 23.4304 7.40861C23.4304 7.45049 23.4304 7.49236 23.4304 7.53424C23.3893 10.6121 21.579 13.5643 18.0613 16.2862C15.4281 18.3381 12.7333 19.5316 12.219 19.7619C12.1778 19.7828 12.1367 19.8038 12.1367 19.8038L11.9927 19.8456ZM7.11724 1.58792C3.99038 1.58792 1.43951 4.16326 1.41894 7.3458V7.36673V7.38767C1.41894 7.42955 1.41894 7.47142 1.41894 7.49236C1.5218 14.5693 10.5115 18.3172 11.9721 18.8825C12.5687 18.6312 15.099 17.4378 17.5264 15.5534C20.8179 12.999 22.5047 10.2771 22.5459 7.49236C22.5459 7.45049 22.5459 7.40861 22.5459 7.38767V7.36673V7.3458C22.5253 4.16326 19.9744 1.58792 16.8476 1.58792C15.0784 1.58792 13.4327 2.40449 12.3424 3.84919L11.9927 4.30982L11.6224 3.84919C10.5321 2.40449 8.88639 1.58792 7.11724 1.58792Z" fill="white"/>
</svg>
