<svg width="41" height="30" viewBox="0 0 41 30" fill="none" xmlns="http://www.w3.org/2000/svg">
<path d="M40.5971 16.5134V19.2225H34.1568L30.774 24.9941C30.4488 25.5241 29.9283 25.7597 29.2778 25.7008C28.6272 25.7008 28.1718 25.2885 27.9767 24.8174L25.4396 18.1036L23.2278 22.9917C22.9025 23.5217 22.317 23.8162 21.6014 23.8162C20.9509 23.6984 20.4305 23.2273 20.3003 22.6383L18.2186 10.8008L15.6815 28.8221C15.6165 29.4699 14.9659 30 14.2504 30C14.2504 30 14.2504 30 14.1853 30C13.4697 30 12.8842 29.47 12.689 28.881L9.76163 14.9822L7.94013 18.398C7.67992 18.8692 7.1595 19.1047 6.57402 19.1047H0.263794V16.3957H5.53313L8.98101 9.97627C9.30628 9.38733 9.89174 9.15177 10.5423 9.21066C11.1928 9.32845 11.7132 9.74072 11.8434 10.3296L13.9251 20.1059L16.5272 1.79012C16.5923 1.14229 17.2428 0.671134 17.9584 0.671134C18.674 0.612241 19.3245 1.14229 19.5197 1.79012L22.3821 17.5735L24.2687 13.6277C24.5289 13.0976 25.0493 12.7443 25.6998 12.8032C26.3503 12.8032 26.8708 13.2154 27.131 13.6866L29.7982 20.8126L31.945 17.1024C32.2052 16.6312 32.7256 16.3957 33.2461 16.3957H40.5971V16.5134Z" fill="#4C4F91"/>
</svg>
