<svg width="400" height="100" viewBox="0 0 400 100" fill="none" xmlns="http://www.w3.org/2000/svg">
<path d="M346.876 49.2983C346.514 49.2983 346.272 49.5469 346.152 49.9198L342.046 64.9613L339.149 36.9916C339.149 36.6187 338.787 36.2457 338.424 36.2457C338.062 36.2457 337.7 36.4944 337.579 36.9916L330.214 90.9421L323.091 1.56325C323.091 1.19032 322.729 0.817383 322.366 0.817383C322.004 0.817383 321.642 1.066 321.521 1.43893L309.931 67.3232L305.101 40.2236C304.98 39.8507 304.739 39.6021 304.377 39.6021C304.014 39.6021 303.652 39.7264 303.532 40.0993L299.306 49.4226H259.463C259.101 49.4226 258.859 49.6712 258.738 50.0441L254.633 65.0856L251.736 37.1159C251.736 36.743 251.373 36.37 251.011 36.37C250.649 36.37 250.287 36.6187 250.166 37.1159L242.801 91.0664L235.678 1.68755C235.678 1.31462 235.315 0.9417 234.953 0.9417C234.591 0.9417 234.229 1.19032 234.108 1.56325L222.517 67.4475L217.688 40.348C217.567 39.975 217.326 39.7264 216.963 39.7264C216.601 39.7264 216.239 39.8507 216.118 40.2236L211.893 49.5469H172.05C171.687 49.5469 171.446 49.7955 171.325 50.1684L167.22 65.21L164.322 37.2402C164.322 36.8673 163.96 36.4943 163.598 36.4943C163.236 36.4943 162.874 36.743 162.753 37.2402L155.388 91.1907L148.264 1.81187C148.264 1.43894 147.902 1.066 147.54 1.066C147.178 1.066 146.816 1.31462 146.695 1.68755L135.104 67.5718L130.275 40.4723C130.154 40.0994 129.912 39.8507 129.55 39.8507C129.188 39.8507 128.826 39.975 128.705 40.348L124.479 49.6712H84.6363C84.2741 49.6712 84.0326 49.9198 83.9119 50.2928L79.8068 65.3343L76.9091 37.3645C76.9091 36.9916 76.5469 36.6187 76.1847 36.6187C75.8225 36.6187 75.4603 36.8673 75.3396 37.3645L67.9746 91.3151L60.8512 1.93618C60.8512 1.56325 60.489 1.19032 60.1268 1.19032C59.7646 1.19032 59.4024 1.43894 59.2816 1.81187L47.6909 67.6962L42.8615 40.5966C42.7407 40.2237 42.4993 39.975 42.137 39.975C41.7748 39.975 41.4126 40.0994 41.2919 40.4723L37.0661 49.7955H1.08664L0 51.4115H37.5491C37.9113 51.4115 38.1527 51.2872 38.2735 50.9143L41.7748 43.3314L46.8458 72.4199C46.9665 72.7929 47.208 73.0415 47.5702 73.0415C47.9324 73.0415 48.2946 72.7929 48.2946 72.4199L59.5231 8.27598L66.6465 98.7737C66.6465 99.1466 67.0088 99.5195 67.371 99.5195C67.7332 99.5195 68.0954 99.2709 68.2161 98.7737L75.7018 44.0773L78.358 69.8094C78.358 70.1824 78.7202 70.5553 79.0824 70.5553C79.4446 70.5553 79.8068 70.3067 79.9276 69.9337L84.9985 51.4115H124.721C125.083 51.4115 125.324 51.2872 125.445 50.9143L128.947 43.3314L134.018 72.4199C134.138 72.7929 134.38 73.0415 134.742 73.0415C135.104 73.0415 135.466 72.7929 135.466 72.4199L146.695 8.27598L153.818 98.7737C153.818 99.1466 154.181 99.5195 154.543 99.5195C154.905 99.5195 155.267 99.2709 155.388 98.7737L162.874 44.0773L165.53 69.8094C165.53 70.1824 165.892 70.5553 166.254 70.5553C166.616 70.5553 166.979 70.3067 167.099 69.9337L173.015 50.9143H212.738C213.1 50.9143 213.341 50.79 213.462 50.4171L216.963 42.8342L222.034 71.9227C222.155 72.2956 222.397 72.5442 222.759 72.5442C223.121 72.5442 223.483 72.2956 223.483 71.9227L234.712 7.77875L241.835 98.2764C241.835 98.6494 242.197 99.0223 242.56 99.0223C242.922 99.0223 243.284 98.7737 243.405 98.2764L250.89 43.58L253.547 69.3122C253.547 69.6851 253.909 70.058 254.271 70.058C254.633 70.058 254.995 69.8094 255.116 69.4365L260.187 50.9143H299.909C300.272 50.9143 300.513 50.79 300.634 50.4171L304.135 42.8342L309.327 71.9227C309.448 72.2956 309.689 72.5442 310.051 72.5442C310.414 72.5442 310.776 72.2956 310.776 71.9227L322.004 7.77875L329.128 98.2764C329.128 98.6494 329.49 99.0223 329.852 99.0223C330.214 99.0223 330.577 98.7737 330.577 98.2764L338.062 43.58L340.718 69.3122C340.718 69.6851 341.081 70.058 341.443 70.058C341.805 70.058 342.167 69.8094 342.288 69.4365L347.359 50.9143H400V49.2983H346.876Z" fill="#4AD891"/>
</svg>
