<svg width="40" height="30" viewBox="0 0 40 30" fill="none" xmlns="http://www.w3.org/2000/svg">
<path fill-rule="evenodd" clip-rule="evenodd" d="M8.99938 6.41441H8.92836H4.88016H3.10463H2.3234C1.25809 6.41441 0.263794 7.20721 0.263794 8.1982V28.2162C0.263794 29.1411 1.18707 30 2.3234 30H37.6209C38.6862 30 39.6805 29.2072 39.6805 28.2162V10.9069C39.6094 11.039 39.4674 11.1051 39.1833 11.1051H0.831962C0.831962 11.1051 0.334815 11.1051 0.334815 10.8408V9.25524C0.334815 9.12311 0.476857 9.05705 0.547878 9.05705H39.4674C39.5384 9.05705 39.6094 9.12314 39.6805 9.12314V8.1982C39.6805 7.27328 38.7572 6.41441 37.6209 6.41441H35.2772H35.2061H30.5188H30.2347V1.5916V0.666656H29.0983H10.2778H9.0704V1.5916V6.41441H8.99938Z" fill="#4C4F91"/>
<path d="M27.8199 2.51654H11.4141V5.95194H27.8199V2.51654Z" fill="white"/>
<path d="M23.34 18.0751C23.0116 18.1255 23.0116 18.1257 23.0116 18.1258L23.0117 18.1261L23.0118 18.1267L23.012 18.1281L23.0125 18.1312L23.0139 18.1391C23.015 18.145 23.0164 18.1522 23.0183 18.1607C23.022 18.1775 23.0274 18.1995 23.0352 18.225C23.0506 18.2749 23.0768 18.3444 23.1212 18.4166C23.2143 18.5681 23.3984 18.7426 23.7004 18.7426H26.3779C26.4885 18.7426 26.5943 18.7804 26.6664 18.8378C26.7335 18.8913 26.7665 18.9559 26.7665 19.033V22.8648C26.7665 22.9792 26.6461 23.1552 26.3779 23.1552H23.7519H23.7327L23.7136 23.1574L23.7519 23.4875C23.7136 23.1574 23.7134 23.1575 23.7133 23.1575L23.7131 23.1575L23.7126 23.1576L23.7115 23.1577L23.7087 23.158L23.7014 23.159C23.6957 23.1598 23.6884 23.1609 23.6798 23.1623C23.6626 23.1652 23.6394 23.1695 23.6123 23.1758C23.5594 23.1881 23.4845 23.2095 23.4058 23.2461C23.2609 23.3135 23.0077 23.4836 23.0077 23.8228V26.074C23.0077 26.1543 22.9782 26.2202 22.927 26.2678C22.8759 26.3153 22.7811 26.3644 22.6192 26.3644H18.191C18.0804 26.3644 17.9746 26.3267 17.9026 26.2692C17.8355 26.2157 17.8024 26.1512 17.8024 26.074V23.7749C17.8024 23.6169 17.7514 23.4752 17.6521 23.3655C17.5589 23.2625 17.445 23.212 17.3569 23.1864C17.268 23.1605 17.1852 23.1541 17.129 23.153C17.0998 23.1525 17.0751 23.1533 17.0566 23.1544C17.052 23.1546 17.0477 23.1549 17.0439 23.1552H14.4837C14.3515 23.1552 14.2353 23.1081 14.1635 23.0477C14.0927 22.9881 14.0875 22.9401 14.0913 22.9153L14.0951 22.8902V22.8648V19.033C14.0951 18.9187 14.2155 18.7426 14.4837 18.7426H17.1097C17.3957 18.7426 17.5963 18.619 17.7066 18.4432C17.7552 18.3657 17.7784 18.2904 17.7898 18.2358C17.7956 18.208 17.7987 18.1839 17.8004 18.165C17.8013 18.1554 17.8018 18.1471 17.8021 18.1401L17.8024 18.1305L17.8024 18.1265L17.8024 18.1246L17.8024 18.1238L17.8024 18.1234C17.8024 18.1232 17.8024 18.123 17.4725 18.123H17.8024V15.776C17.8024 15.7525 17.8176 15.6957 17.8894 15.6356C17.9578 15.5783 18.0624 15.5335 18.191 15.5335H22.6192C22.763 15.5335 22.8671 15.5754 22.928 15.6235C22.9847 15.6684 23.0077 15.7194 23.0077 15.776V18.0751V18.1004L23.0116 18.1255L23.34 18.0751Z" fill="#4AD891" stroke="white" stroke-width="0.664582"/>
</svg>
