<svg width="24" height="24" viewBox="0 0 24 24" fill="none" xmlns="http://www.w3.org/2000/svg">
<path d="M20.1512 17.5106L20.1507 17.5102L16.0857 13.8142C16.0857 13.8142 16.0857 13.8142 16.0857 13.8142C15.9895 13.7268 15.8632 13.6802 15.7333 13.6842C15.6034 13.6882 15.4801 13.7426 15.3895 13.8358L15.3895 13.8358L12.9965 16.2968L12.8088 16.4899L12.5442 16.4394C11.8893 16.3143 10.6344 15.9145 9.35893 14.6422L9.35834 14.6416C8.08296 13.3652 7.68265 12.1069 7.56056 11.4542L7.51131 11.1909L7.70325 11.004L10.1623 8.60998L10.1629 8.60939C10.2561 8.51896 10.3104 8.3958 10.3144 8.266C10.3185 8.13619 10.2718 8.00991 10.1844 7.91389L10.1841 7.9136L6.48909 3.8496L6.4889 3.84939C6.40142 3.75307 6.27984 3.69465 6.14998 3.68652C6.02017 3.6784 5.89232 3.72118 5.79353 3.80578C5.79349 3.80582 5.79345 3.80586 5.7934 3.80589L3.64096 5.65184C3.56131 5.73714 3.51388 5.84779 3.50723 5.96465L3.50714 5.96619C3.49437 6.17902 3.21799 11.912 7.65255 16.3486C7.65259 16.3487 7.65263 16.3487 7.65267 16.3488M20.1512 17.5106L18.064 20.9922C18.031 20.9942 17.907 21.0002 17.705 21.0002C16.323 21.0002 11.305 20.7072 7.29904 16.7022L7.65267 16.3488M20.1512 17.5106C20.2472 17.5978 20.3055 17.719 20.3134 17.8485C20.3213 17.9779 20.2783 18.1054 20.1935 18.2035L20.1923 18.2049L18.3465 20.3594M20.1512 17.5106L18.3465 20.3594M7.65267 16.3488C11.5188 20.2139 16.3719 20.5002 17.705 20.5002C17.8978 20.5002 18.0117 20.4945 18.0338 20.4932L18.0361 20.493C18.1523 20.4865 18.2622 20.4391 18.3465 20.3594M7.65267 16.3488L18.3465 20.3594" stroke="#4AD891"/>
</svg>
